<?xml version="1.0" standalone="no"?>
<!DOCTYPE svg PUBLIC "-//W3C//DTD SVG 20010904//EN"
 "http://www.w3.org/TR/2001/REC-SVG-20010904/DTD/svg10.dtd">
<svg version="1.0" xmlns="http://www.w3.org/2000/svg"
 width="800.000000pt" height="800.000000pt" viewBox="0 0 800.000000 800.000000"
 preserveAspectRatio="xMidYMid meet">
<metadata>
Created by potrace 1.14, written by Peter Selinger 2001-2017
</metadata>
<g transform="translate(0.000000,800.000000) scale(0.100000,-0.100000)"
fill="#000000" stroke="none">
<path d="M3330 5615 c0 -98 51 -232 124 -328 20 -26 36 -49 36 -52 0 -3 -59
-5 -131 -5 l-130 0 31 -59 c41 -77 114 -158 187 -207 32 -21 59 -39 60 -39 1
-1 -9 -34 -23 -73 -14 -40 -29 -110 -34 -155 -6 -45 -10 -430 -10 -854 l0
-773 59 0 c132 0 275 42 402 117 199 118 340 304 400 528 31 115 31 301 1 407
-41 145 -114 278 -273 495 -50 67 -102 148 -117 180 -101 221 61 472 306 474
l65 1 -456 188 c-251 104 -465 191 -476 195 -19 6 -21 2 -21 -40z"/>
<path d="M4083 5068 c-79 -21 -111 -127 -55 -188 15 -17 41 -34 58 -39 39 -11
102 9 126 41 69 90 -17 216 -129 186z"/>
</g>
</svg>
